<svg width="28" height="28" fill="none" xmlns="http://www.w3.org/2000/svg"><path d="M14.16 8.22a5.927 5.927 0 00-5.936 5.938 5.927 5.927 0 005.937 5.937 5.927 5.927 0 005.935-5.937 5.927 5.927 0 00-5.935-5.938zm0 9.798a3.867 3.867 0 01-3.859-3.86c0-2.13 1.731-3.86 3.86-3.86a3.863 3.863 0 013.859 3.86 3.867 3.867 0 01-3.86 3.86zm7.564-10.04c0 .77-.62 1.385-1.385 1.385a1.385 1.385 0 111.385-1.385zm3.931 1.405c-.087-1.855-.511-3.498-1.87-4.852-1.353-1.354-2.996-1.778-4.85-1.87-1.912-.11-7.642-.11-9.553 0-1.85.087-3.493.51-4.851 1.865C3.17 5.88 2.753 7.523 2.66 9.378c-.11 1.912-.11 7.643 0 9.555.087 1.855.51 3.498 1.87 4.852 1.358 1.354 2.996 1.777 4.85 1.87 1.912.109 7.642.109 9.553 0 1.855-.087 3.498-.511 4.851-1.87 1.354-1.354 1.777-2.997 1.87-4.852.109-1.912.109-7.638 0-9.55zm-2.469 11.601a3.907 3.907 0 01-2.2 2.201c-1.525.605-5.141.465-6.825.465-1.685 0-5.306.135-6.825-.465a3.907 3.907 0 01-2.201-2.201c-.604-1.524-.465-5.142-.465-6.826 0-1.685-.134-5.307.465-6.826a3.908 3.908 0 012.2-2.202c1.525-.604 5.141-.465 6.826-.465 1.684 0 5.305-.134 6.824.465a3.907 3.907 0 012.201 2.202c.605 1.524.465 5.141.465 6.826 0 1.684.14 5.307-.465 6.826z" fill="#000"/></svg>