<svg width="394" height="317" fill="none" xmlns="http://www.w3.org/2000/svg"><g clip-path="url(#a)"><path d="M410.908 270.9c0 113.99-93.378 63.6-208.566 63.6-115.187 0-208.565 50.39-208.565-63.6 0-113.99 93.378-206.397 208.565-206.397 115.188 0 208.566 92.407 208.566 206.397z" fill="#F2CEDF"/><path d="M33.515-4.397l114.241 101.33-110.011 51.273-4.23-152.603z" fill="#F2CEDF"/><path d="M49.962 32.324l66.435 56.887-62.487 30.462-3.948-87.349z" fill="#fff"/><path d="M356.904-5.46l-3.902 140.801-101.503-47.308L356.904-5.46z" fill="#F2CEDF"/><path d="M344.456 23.794l-2.441 88.061-63.483-29.588 65.924-58.473z" fill="#fff"/><ellipse cx="156.396" cy="164.089" rx="14.971" ry="25.284" fill="#fff"/><ellipse cx="237.964" cy="164.089" rx="14.971" ry="25.284" fill="#fff"/><path d="M196.148 189.373l22.354 38.7h-44.709l22.355-38.7z" fill="#F29BCB"/><path transform="rotate(-163.694 43.056 105.733) skewX(-.015)" stroke="#000" stroke-width="4.01" d="M0 -2.005L88.214 -2.005"/><path transform="rotate(159.614 194.109 132.648) skewX(.019)" stroke="#000" stroke-width="4.01" d="M0 -2.005L85.916 -2.005"/><path transform="rotate(164.752 195.903 142.04) skewX(.015)" stroke="#000" stroke-width="4.01" d="M0 -2.005L82.404 -2.005"/><path d="M423.392 265.045l-76.499 17.026" stroke="#000" stroke-width="4.01"/><path transform="rotate(-174.43 33.408 123.284) skewX(-.006)" stroke="#000" stroke-width="4.01" d="M0 -2.005L85.067 -2.005"/><path transform="rotate(-177.209 30.748 138.912) skewX(-.003)" stroke="#000" stroke-width="4.01" d="M0 -2.005L84.766 -2.005"/></g><defs><clipPath id="a"><path fill="#fff" d="M0 0H394V317H0z"/></clipPath></defs></svg>