<svg width="394" height="534" fill="none" xmlns="http://www.w3.org/2000/svg"><ellipse cx="203.269" cy="271.816" rx="208.566" ry="206.398" fill="#F2CEDF"/><path d="M34.441-3.481l114.241 101.33-110.011 51.273L34.44-3.481z" fill="#F2CEDF"/><path d="M50.888 33.24l66.435 56.887-62.486 30.462-3.949-87.349z" fill="#fff"/><path d="M357.83-4.543l-3.902 140.8-101.503-47.308L357.83-4.543z" fill="#F2CEDF"/><path d="M345.382 24.71l-2.441 88.061-63.482-29.588 65.923-58.473z" fill="#fff"/><ellipse cx="157.322" cy="165.005" rx="14.971" ry="25.284" fill="#fff"/><ellipse cx="238.89" cy="165.005" rx="14.971" ry="25.284" fill="#fff"/><path d="M197.074 190.289l22.354 38.7h-44.709l22.355-38.7z" fill="#F29BCB"/><path transform="rotate(-163.694 43.585 106.124) skewX(-.015)" stroke="#000" stroke-width="4.01" d="M0 -2.005L88.214 -2.005"/><path transform="rotate(159.614 194.49 133.189) skewX(.019)" stroke="#000" stroke-width="4.01" d="M0 -2.005L85.916 -2.005"/><path transform="rotate(164.752 196.305 142.56) skewX(.015)" stroke="#000" stroke-width="4.01" d="M0 -2.005L82.404 -2.005"/><path d="M424.318 265.961l-76.499 17.026M361.222 512.726l-76.499 17.026" stroke="#000" stroke-width="4.01"/><path transform="rotate(-174.43 33.894 123.72) skewX(-.006)" stroke="#000" stroke-width="4.01" d="M0 -2.005L85.067 -2.005"/><path transform="rotate(-177.209 31.222 139.358) skewX(-.003)" stroke="#000" stroke-width="4.01" d="M0 -2.005L84.766 -2.005"/></svg>