<svg width="28" height="28" fill="none" xmlns="http://www.w3.org/2000/svg"><g clip-path="url(#a)"><path d="M14.045 27.682c7.532 0 13.637-6.105 13.637-13.636 0-7.532-6.105-13.637-13.637-13.637C6.515.41.41 6.514.41 14.045c0 7.532 6.105 13.637 13.636 13.637z" fill="#1C1514"/><path d="M13.594 17.054c.25.25.654.25.903 0l4.068-4.068a.64.64 0 00-.904-.904l-3.616 3.616-3.615-3.616a.64.64 0 00-.904.904l4.068 4.068zm-.188-10.679v10.227h1.279V6.375h-1.279z" fill="#FAFAFA"/><path d="M18.52 20.65H9.57" stroke="#FAFAFA" stroke-width="1.278" stroke-linecap="round" stroke-linejoin="round"/></g><defs><clipPath id="a"><path fill="#fff" transform="translate(.045 .045)" d="M0 0H27.273V27.273H0z"/></clipPath></defs></svg>